<?xml version="1.0" standalone="no"?>
<!DOCTYPE svg PUBLIC "-//W3C//DTD SVG 20010904//EN"
 "http://www.w3.org/TR/2001/REC-SVG-20010904/DTD/svg10.dtd">
<svg version="1.0" xmlns="http://www.w3.org/2000/svg"
 width="70.000000pt" height="70.000000pt" viewBox="0 0 70.000000 70.000000"
 preserveAspectRatio="xMidYMid meet">
<metadata>
Created by potrace 1.14, written by Peter Selinger 2001-2017
</metadata>
<g transform="translate(0.000000,70.000000) scale(0.100000,-0.100000)"
fill="#000000" stroke="none">
<path d="M314 671 c-18 -11 -45 -36 -60 -55 -24 -30 -35 -36 -67 -36 -70 0
-141 -52 -162 -119 -12 -39 -7 -108 10 -141 9 -17 34 -44 57 -61 38 -27 42
-34 39 -67 -4 -66 36 -134 101 -168 35 -18 121 -18 157 1 35 18 79 69 87 101
5 20 13 24 40 24 75 0 152 68 169 147 11 52 -12 113 -60 159 -29 28 -44 53
-49 80 -18 95 -76 146 -170 152 -48 2 -68 -1 -92 -17z m155 -6 c16 -8 40 -28
55 -45 26 -32 51 -103 41 -119 -3 -5 10 -19 29 -30 143 -89 80 -311 -89 -311
-27 0 -35 -4 -35 -18 0 -30 -47 -88 -86 -107 -50 -23 -129 -17 -174 15 -41 29
-73 99 -68 150 3 34 -1 41 -32 62 -105 71 -109 206 -8 281 18 14 49 22 88 25
39 3 60 9 60 17 0 21 37 61 72 78 41 21 110 22 147 2z"/>
<path d="M304 466 c-122 -54 -84 -226 50 -226 45 0 92 39 107 89 27 92 -69
176 -157 137z m117 -36 c22 -12 26 -59 7 -78 -7 -7 -21 -12 -33 -12 -29 0 -45
19 -45 52 0 39 34 57 71 38z"/>
</g>
</svg>
